<svg width="20" height="20" viewBox="0 0 20 20" fill="none" xmlns="http://www.w3.org/2000/svg">
<g clip-path="url(#clip0_0_246)">
<path d="M10.0001 20C15.5229 20 20.0001 15.5228 20.0001 10C20.0001 4.47715 15.5229 0 10.0001 0C4.47721 0 6.10352e-05 4.47715 6.10352e-05 10C6.10352e-05 15.5228 4.47721 20 10.0001 20Z" fill="#155261"/>
<path d="M13.2512 3.07031H11.0359C9.7213 3.07031 8.2591 3.62322 8.2591 5.52878C8.26551 6.19276 8.2591 6.82865 8.2591 7.5443H6.73828V9.96437H8.30616V16.9313H11.1872V9.91839H13.0888L13.2609 7.53751H11.1376C11.1376 7.53751 11.1423 6.47839 11.1376 6.17082C11.1376 5.41778 11.9211 5.46091 11.9683 5.46091C12.3411 5.46091 13.0661 5.46199 13.2522 5.46091V3.07031H13.2512Z" fill="white"/>
</g>
<defs>
<clipPath id="clip0_0_246">
<rect width="20" height="20" fill="white"/>
</clipPath>
</defs>
</svg>
