<svg width="20" height="20" viewBox="0 0 20 20" fill="none" xmlns="http://www.w3.org/2000/svg">
<path d="M6.66721 10C6.66721 11.8409 8.15913 13.3336 10 13.3336C11.8409 13.3336 13.3336 11.8409 13.3336 10C13.3336 8.15913 11.8409 6.6664 10 6.6664C8.15913 6.6664 6.66721 8.15913 6.66721 10ZM4.8651 10C4.8651 7.16397 7.16397 4.86511 10 4.86511C12.836 4.86511 15.1349 7.16397 15.1349 10C15.1349 12.836 12.836 15.1349 10 15.1349C7.16397 15.1349 4.8651 12.836 4.8651 10ZM14.1381 15.3384C14.1381 14.6761 14.6753 14.1381 15.3384 14.1381C16.0008 14.1381 16.5388 14.6761 16.5388 15.3384C16.5388 16.0008 16.0016 16.538 15.3384 16.538C14.6753 16.538 14.1381 16.0008 14.1381 15.3384ZM5.95961 1.86026C4.98465 1.90469 4.45477 2.06704 4.10258 2.20436C3.6357 2.38611 3.30291 2.60258 2.95234 2.95234C2.60258 3.3021 2.3853 3.6349 2.20436 4.10178C2.06704 4.45396 1.90468 4.98384 1.86026 5.9588C1.81179 7.01292 1.8021 7.32956 1.8021 10C1.8021 12.6704 1.8126 12.9863 1.86026 14.0412C1.90468 15.0162 2.06785 15.5452 2.20436 15.8982C2.38611 16.3651 2.60258 16.6979 2.95234 17.0485C3.3021 17.3982 3.63489 17.6155 4.10258 17.7964C4.45477 17.9338 4.98465 18.0961 5.95961 18.1405C7.01373 18.189 7.33037 18.1987 10 18.1987C12.6704 18.1987 12.9863 18.1882 14.0412 18.1405C15.0162 18.0961 15.5452 17.933 15.8982 17.7964C16.3651 17.6155 16.6979 17.3982 17.0485 17.0485C17.3982 16.6987 17.6147 16.3651 17.7964 15.8982C17.9338 15.546 18.0961 15.0162 18.1405 14.0412C18.189 12.9863 18.1987 12.6704 18.1987 10C18.1987 7.33037 18.189 7.01373 18.1405 5.9588C18.0961 4.98384 17.933 4.45396 17.7964 4.10178C17.6147 3.6349 17.3982 3.3021 17.0485 2.95234C16.6987 2.60258 16.3651 2.38611 15.8982 2.20436C15.546 2.06704 15.0162 1.90469 14.0412 1.86026C12.9871 1.81179 12.6704 1.8021 10 1.8021C7.33037 1.8021 7.01373 1.81179 5.95961 1.86026ZM5.87722 19.9394C4.8126 19.891 4.08562 19.7221 3.44992 19.475C2.79241 19.2197 2.23506 18.8772 1.67851 18.3215C1.12278 17.7658 0.780291 17.2084 0.52504 16.5501C0.277868 15.9144 0.109047 15.1874 0.0605816 14.1228C0.0113086 13.0565 0 12.7157 0 10C0 7.28433 0.0113086 6.94346 0.0605816 5.87722C0.109047 4.8126 0.277868 4.08562 0.52504 3.44992C0.780291 2.79241 1.12197 2.23425 1.67851 1.67851C2.23425 1.12278 2.7916 0.781099 3.44992 0.525042C4.08643 0.277868 4.8126 0.109047 5.87722 0.0605831C6.94426 0.0121174 7.28433 0 10 0C12.7165 0 13.0565 0.0113087 14.1228 0.0605831C15.1874 0.109047 15.9144 0.277868 16.5501 0.525042C17.2076 0.781099 17.7649 1.12278 18.3215 1.67851C18.8772 2.23425 19.2189 2.79241 19.475 3.44992C19.7221 4.08562 19.8918 4.8126 19.9394 5.87722C19.9879 6.94427 19.9992 7.28433 19.9992 10C19.9992 12.7157 19.9879 13.0565 19.9394 14.1228C19.891 15.1874 19.7221 15.9144 19.475 16.5501C19.2189 17.2076 18.8772 17.7649 18.3215 18.3215C17.7658 18.8772 17.2076 19.2197 16.5509 19.475C15.9144 19.7221 15.1874 19.8918 14.1236 19.9394C13.0574 19.9879 12.7165 20 10.0008 20C7.28433 20 6.94426 19.9887 5.87722 19.9394Z" fill="#155261"/>
</svg>
