<svg width="25" height="25" viewBox="0 0 25 25" fill="none" xmlns="http://www.w3.org/2000/svg">
<path d="M25 12.5C25 10.0277 24.2669 7.61099 22.8934 5.55538C21.5199 3.49976 19.5676 1.89761 17.2835 0.951511C14.9995 0.00541604 12.4861 -0.242126 10.0614 0.24019C7.63662 0.722505 5.40933 1.91301 3.66117 3.66117C1.91301 5.40933 0.722505 7.63662 0.24019 10.0614C-0.242126 12.4861 0.00541604 14.9995 0.951511 17.2835C1.89761 19.5676 3.49976 21.5199 5.55538 22.8934C7.61099 24.2669 10.0277 25 12.5 25C15.8152 24.9999 18.9945 23.6829 21.3387 21.3387C23.6829 18.9945 24.9999 15.8152 25 12.5ZM13.5899 17.3285L7.80626 12.4328L13.5899 7.5418C13.668 7.4745 13.7588 7.42336 13.8568 7.39132C13.9549 7.35927 14.0583 7.34697 14.1612 7.35512C14.264 7.36326 14.3642 7.39169 14.456 7.43877C14.5478 7.48585 14.6294 7.55065 14.696 7.62942C14.7626 7.70818 14.813 7.79937 14.8442 7.8977C14.8754 7.99604 14.8868 8.09957 14.8777 8.20234C14.8687 8.30511 14.8394 8.40507 14.7915 8.49645C14.7437 8.58784 14.6782 8.66883 14.5988 8.73477L10.2258 12.434L14.5992 16.1363C14.6791 16.2021 14.7452 16.2831 14.7935 16.3747C14.8418 16.4662 14.8715 16.5664 14.8807 16.6695C14.89 16.7726 14.8787 16.8765 14.8474 16.9752C14.8162 17.0739 14.7656 17.1654 14.6988 17.2444C14.6319 17.3233 14.5499 17.3882 14.4577 17.4353C14.3655 17.4823 14.2649 17.5106 14.1617 17.5184C14.0585 17.5263 13.9548 17.5135 13.8565 17.4809C13.7583 17.4483 13.6679 17.3965 13.5899 17.3285Z" fill="#DAD5D3"/>
</svg>
