<svg width="25" height="25" viewBox="0 0 25 25" fill="none" xmlns="http://www.w3.org/2000/svg">
<path d="M0 12.5C0 14.9723 0.733112 17.389 2.10663 19.4446C3.48015 21.5002 5.43238 23.1024 7.71646 24.0485C10.0005 24.9946 12.5139 25.2421 14.9386 24.7598C17.3634 24.2775 19.5907 23.087 21.3388 21.3388C23.087 19.5907 24.2775 17.3634 24.7598 14.9386C25.2421 12.5139 24.9946 10.0005 24.0485 7.71646C23.1024 5.43238 21.5002 3.48015 19.4446 2.10663C17.389 0.733112 14.9723 0 12.5 0C9.18479 0 6.00537 1.31696 3.66117 3.66117C1.31696 6.00537 0 9.18479 0 12.5H0ZM11.4102 7.67188L17.1934 12.568L11.4102 17.4586C11.3318 17.5248 11.2412 17.575 11.1434 17.6062C11.0457 17.6375 10.9427 17.6491 10.8405 17.6406C10.7382 17.632 10.6387 17.6034 10.5475 17.5563C10.4563 17.5093 10.3752 17.4448 10.309 17.3664C10.2427 17.288 10.1926 17.1974 10.1613 17.0997C10.1301 17.0019 10.1185 16.899 10.127 16.7967C10.1356 16.6945 10.1642 16.5949 10.2112 16.5037C10.2583 16.4125 10.3228 16.3315 10.4012 16.2652L14.7742 12.5672L10.4008 8.86445C10.3209 8.79866 10.2548 8.71764 10.2065 8.62611C10.1582 8.53457 10.1285 8.43435 10.1193 8.33126C10.11 8.22817 10.1213 8.12426 10.1526 8.02558C10.1838 7.9269 10.2344 7.83542 10.3013 7.75643C10.3682 7.67745 10.4501 7.61255 10.5423 7.5655C10.6345 7.51845 10.7351 7.49018 10.8383 7.48235C10.9415 7.47452 11.0452 7.48728 11.1435 7.51988C11.2417 7.55248 11.3325 7.60428 11.4105 7.67227L11.4102 7.67188Z" fill="#FF652E"/>
</svg>
