<svg width="25" height="25" viewBox="0 0 25 25" fill="none" xmlns="http://www.w3.org/2000/svg">
<g clip-path="url(#clip0_0_79)">
<path d="M16.1328 14.6477C17.2703 14.0092 18.2194 13.0822 18.8845 11.96C19.5496 10.8379 19.9072 9.56029 19.9213 8.25593C19.9354 6.95158 19.6054 5.66655 18.9647 4.53032C18.324 3.39408 17.3952 2.44678 16.2717 1.78385C15.1483 1.12091 13.87 0.76577 12.5657 0.754198C11.2613 0.742627 9.97689 1.07503 8.8419 1.71793C7.7069 2.36083 6.76139 3.29151 6.10062 4.41619C5.43986 5.54088 5.08718 6.81985 5.07812 8.12425C6.23256 7.81396 7.43731 7.73716 8.6218 7.89837C9.80629 8.05958 10.9467 8.45554 11.9762 9.06307C13.0057 9.6706 13.9037 10.4775 14.6174 11.4364C15.3312 12.3954 15.8463 13.4871 16.1328 14.6477Z" fill="#FF652E"/>
<path d="M11.2503 10.4297C10.1246 9.74769 8.83791 9.37727 7.52196 9.3564C6.20601 9.33554 4.90818 9.66497 3.7615 10.3109C2.61482 10.9569 1.66054 11.8962 0.996466 13.0325C0.332394 14.1688 -0.0175781 15.4612 -0.0175781 16.7773C-0.0175781 18.0935 0.332394 19.3859 0.996466 20.5222C1.66054 21.6585 2.61482 22.5978 3.7615 23.2437C4.90818 23.8897 6.20601 24.2192 7.52196 24.1983C8.83791 24.1774 10.1246 23.807 11.2503 23.125C9.56858 21.4405 8.62406 19.1576 8.62406 16.7773C8.62406 14.3971 9.56858 12.1142 11.2503 10.4297Z" fill="#FF652E"/>
<path d="M21.2109 10.3516C20.9245 11.5121 20.4093 12.6039 19.6955 13.5628C18.9818 14.5218 18.0839 15.3287 17.0544 15.9362C16.0248 16.5437 14.8844 16.9397 13.6999 17.1009C12.5154 17.2621 11.3107 17.1853 10.1562 16.875C10.1653 18.1794 10.518 19.4584 11.1787 20.5831C11.8395 21.7077 12.785 22.6384 13.92 23.2813C15.055 23.9242 16.3394 24.2566 17.6438 24.2451C18.9482 24.2335 20.2265 23.8783 21.3499 23.2154C22.4733 22.5525 23.4021 21.6052 24.0428 20.4689C24.6835 19.3327 25.0135 18.0477 24.9994 16.7433C24.9853 15.439 24.6277 14.1614 23.9626 13.0392C23.2975 11.9171 22.3484 10.9901 21.2109 10.3516Z" fill="#FF652E"/>
</g>
<defs>
<clipPath id="clip0_0_79">
<rect width="25" height="25" fill="white"/>
</clipPath>
</defs>
</svg>
