<svg width="50" height="50" viewBox="0 0 50 50" fill="none" xmlns="http://www.w3.org/2000/svg">
<g clip-path="url(#clip0_0_90)">
<path d="M0 45.9977V50H7.09609L8.4375 34.5648C3.28828 36.6641 0 40.9719 0 45.9977ZM25.6836 40.625H17.1195L19.2031 50H32.8125V48.5352C32.8125 44.3953 29.4141 40.625 25.6836 40.625ZM11.5625 33.6102C11.0469 33.7164 10.5469 33.8492 10.0578 33.9945L8.66484 50H17.6023L13.8109 32.9375C13.0776 33.2125 12.3264 33.4372 11.5625 33.6102Z" fill="#FF652E"/>
<path d="M38.5565 33.643C37.8971 33.4232 37.2234 33.2491 36.5401 33.1219C33.1667 32.3977 30.5768 31.5719 30.4784 28.3125C32.4289 26.6353 33.8541 24.4311 34.5831 21.9641C36.8667 21.4734 37.3831 18.3555 37.3831 17.4766C37.3932 14.8266 36.4026 13.8453 35.3448 13.5516V11.6875C35.342 10.9635 35.2879 10.2406 35.1831 9.52422L15.5128 5.3375C14.5363 7.30911 14.0519 9.48789 14.1011 11.6875V13.5508C13.119 13.8313 12.0331 14.7672 12.044 17.5453C12.044 18.368 12.5643 21.5023 14.8628 21.9727C15.5605 24.3474 16.9068 26.4805 18.7503 28.132C18.7503 29.5953 17.7847 30.7188 16.5628 31.5578C16.5573 31.5617 16.5511 31.5625 16.5456 31.5664C16.5401 31.5703 16.5393 31.575 16.5354 31.5781C16.1311 31.851 15.7085 32.0959 15.2706 32.3109L16.7729 39.0625H25.6839C30.3128 39.0625 34.3753 43.4891 34.3753 48.5352V50H50.0003V46.357C50.0003 40.6898 46.2565 36.5313 38.5565 33.643ZM25.0003 35.1563C21.7972 35.1563 19.9706 34.4102 18.1511 32.3094C19.1792 31.5118 19.905 30.3879 20.2089 29.1227C20.3846 29.1473 20.5634 29.1114 20.716 29.0208C20.8686 28.9303 20.9858 28.7905 21.0484 28.6244C21.1109 28.4584 21.1151 28.276 21.0602 28.1073C21.0053 27.9386 20.8946 27.7935 20.7464 27.6961C18.4852 26.0949 16.8766 23.7327 16.2151 21.0422L16.0589 20.4695H15.4643C13.9753 20.4695 13.6057 17.9102 13.6057 17.4688C13.5972 15.2953 14.2878 15.0109 14.8901 15.0047L15.6636 14.9969V13.3359L33.7815 14.0391V14.993L34.5487 15.007C35.1456 15.0172 35.8284 15.3063 35.8198 17.5445C35.8198 17.9063 35.4518 20.4492 33.9698 20.4656L33.3823 20.4727L33.2261 21.0398C32.5583 23.8006 30.8835 26.2123 28.53 27.8023C28.3843 27.8911 28.2717 28.025 28.2093 28.1837C28.147 28.3424 28.1382 28.5171 28.1844 28.6813C28.2306 28.8454 28.3293 28.9899 28.4653 29.0927C28.6013 29.1956 28.7673 29.2511 28.9378 29.2508C28.9589 29.2508 28.9807 29.2438 29.0018 29.2422C29.1061 29.9611 29.3589 30.6504 29.7442 31.2663C30.1294 31.8822 30.6386 32.4112 31.2393 32.8195C29.5315 34.6531 28.0847 35.1563 25.0003 35.1563ZM25.0003 3.12682e-06H24.219C22.7004 -0.00121512 21.2026 0.353567 19.8458 1.03588C18.489 1.71819 17.3111 2.70904 16.4065 3.92891L34.8518 7.85625C34.3255 5.6333 33.0688 3.65112 31.2828 2.22682C29.4968 0.802528 27.2846 0.01844 25.0003 3.12682e-06Z" fill="#FF652E"/>
</g>
<defs>
<clipPath id="clip0_0_90">
<rect width="50" height="50" fill="white"/>
</clipPath>
</defs>
</svg>
