<svg width="42" height="50" viewBox="0 0 42 50" fill="none" xmlns="http://www.w3.org/2000/svg">
<path d="M40.7539 26.8937C40.3547 25.9289 36.8664 21.5516 36.8664 20.8281C36.8664 19.993 37.7015 17.4258 37.7015 15.8172C37.7015 8.49844 33.6266 0 19.4375 0C5.53124 0 0.956238 10.1875 0.956238 15.8172C0.956238 21.4469 2.53827 25.6609 4.29686 27.5086C6.05546 29.3562 7.64061 31.0531 7.64061 34.1898C7.64881 35.7462 7.22005 37.2737 6.40311 38.5984C6.29701 38.7686 6.26109 38.9733 6.30291 39.1695C6.34473 39.3656 6.46104 39.5379 6.62733 39.65L21.0516 49.5211C21.1463 49.5859 21.2542 49.629 21.3676 49.6474C21.4809 49.6658 21.5969 49.659 21.7073 49.6274C21.8177 49.5959 21.9198 49.5404 22.0063 49.4649C22.0928 49.3894 22.1616 49.2957 22.2078 49.1906C23.207 46.9023 25.9289 40.8703 26.8453 40.8703C28.5156 40.8703 31.8039 42.5406 34.3617 42.5406C36.9195 42.5406 36.4391 36.625 37.2383 34.2125C38.0375 31.8 38.5367 30.3844 38.5367 29.1789C41.7328 28.857 41.1562 27.8586 40.7539 26.8937ZM28.3391 20.4508C28.5548 20.1004 28.6948 19.7088 28.7501 19.3012C28.8054 18.8935 28.7747 18.4787 28.6601 18.0836C28.5322 17.4669 28.236 16.8978 27.8044 16.4391C27.3727 15.9805 26.8226 15.6503 26.2148 15.4852C25.4742 15.3004 24.6985 15.3091 23.9622 15.5105C23.2258 15.7119 22.5537 16.0992 22.0101 16.6352C21.8678 16.7825 21.7891 16.9798 21.7909 17.1847C21.7926 17.3895 21.8748 17.5855 22.0197 17.7303C22.1645 17.8752 22.3605 17.9573 22.5653 17.9591C22.7701 17.9609 22.9675 17.8822 23.1148 17.7398C23.4613 17.3977 23.8891 17.1494 24.3581 17.0183C24.827 16.8872 25.3217 16.8777 25.7953 16.9906C26.1352 17.0837 26.4421 17.2708 26.6806 17.5303C26.9191 17.7898 27.0796 18.1112 27.1437 18.4578C27.2097 18.6193 27.2415 18.7927 27.2371 18.967C27.2326 19.1414 27.1921 19.313 27.118 19.4709C27.044 19.6288 26.938 19.7696 26.8067 19.8845C26.6754 19.9994 26.5218 20.0858 26.3555 20.1383C26.1785 20.1924 26.0268 20.3083 25.9282 20.4649C25.8295 20.6215 25.7904 20.8084 25.818 20.9914C25.5234 21.0289 25.2312 21.0695 24.907 21.0938C22.6226 21.2828 20.7453 21.4484 19.2242 21.6305C19.3663 21.4801 19.443 21.2796 19.4374 21.0728C19.4319 20.866 19.3445 20.6698 19.1945 20.5273C18.9809 20.3241 18.825 20.0679 18.7426 19.7847C18.6603 19.5016 18.6545 19.2017 18.7258 18.9156C18.8372 18.4957 19.0559 18.112 19.3604 17.802C19.6649 17.4921 20.0446 17.2666 20.4625 17.1477C20.6593 17.0821 20.8221 16.941 20.9149 16.7554C21.0077 16.5699 21.023 16.355 20.9574 16.1582C20.8918 15.9614 20.7507 15.7986 20.5652 15.7058C20.3796 15.613 20.1648 15.5977 19.968 15.6633C19.2934 15.8659 18.6833 16.241 18.198 16.7515C17.7127 17.262 17.369 17.8902 17.2008 18.5742C17.0714 19.1234 17.0876 19.6969 17.2479 20.2379C17.4083 20.7789 17.7071 21.2686 18.1148 21.6586C18.1604 21.6958 18.2102 21.7276 18.2633 21.7531C15.6383 22.1219 14.3055 22.5852 13.9664 23.4359C13.4101 24.8266 13.1851 28.1234 11.6226 28.1234C11.4111 28.1503 11.1961 28.1284 10.9943 28.0593C10.7925 27.9903 10.6092 27.876 10.4584 27.7252C10.3076 27.5744 10.1933 27.3911 10.1242 27.1892C10.0552 26.9874 10.0333 26.7725 10.0601 26.5609C10.0601 25.1336 9.30311 23.4891 8.53436 21.9516C8.68042 21.9044 8.80918 21.8149 8.90431 21.6944C8.99945 21.574 9.05667 21.428 9.06874 21.275C9.09239 20.8199 9.21343 20.3751 9.42368 19.9708C9.63393 19.5665 9.9285 19.212 10.2875 18.9312C11.0147 18.3763 11.8994 18.0666 12.814 18.0469C12.902 18.4879 13.081 18.9056 13.3397 19.2735C13.5984 19.6413 13.9311 19.951 14.3164 20.1828C14.4017 20.2418 14.4979 20.2833 14.5994 20.3048C14.7009 20.3262 14.8057 20.3272 14.9076 20.3078C15.0095 20.2883 15.1065 20.2487 15.1929 20.1914C15.2794 20.134 15.3535 20.06 15.4111 19.9737C15.4686 19.8873 15.5084 19.7904 15.528 19.6885C15.5477 19.5867 15.5469 19.4819 15.5257 19.3804C15.5044 19.2788 15.4631 19.1825 15.4043 19.0971C15.3454 19.0117 15.2701 18.9388 15.1828 18.8828C14.8983 18.7494 14.6657 18.5259 14.521 18.247C14.3762 17.9681 14.3274 17.6493 14.382 17.3398C14.4587 17.0874 14.6091 16.8636 14.8139 16.6973C15.0186 16.5309 15.2684 16.4296 15.5312 16.4062C15.7384 16.4062 15.9372 16.3239 16.0837 16.1774C16.2302 16.0309 16.3125 15.8322 16.3125 15.625C16.3125 15.4178 16.2302 15.2191 16.0837 15.0726C15.9372 14.9261 15.7384 14.8438 15.5312 14.8438C15.0072 14.8655 14.499 15.0297 14.0614 15.3188C13.6238 15.6079 13.2733 16.0109 13.0476 16.4844C11.6997 16.4542 10.3822 16.8877 9.31561 17.7125C8.63081 18.2524 8.10936 18.9718 7.80936 19.7906C7.46416 18.4246 7.2956 17.0199 7.3078 15.6109C7.33354 15.6179 7.35962 15.6237 7.38593 15.6281C7.53787 15.628 7.68649 15.5837 7.8136 15.5004C7.9407 15.4171 8.04077 15.2986 8.10155 15.1594C8.19441 15.0089 8.32239 14.8831 8.47451 14.7929C8.62664 14.7027 8.79837 14.6507 8.97499 14.6414C9.21927 14.6228 9.46383 14.6737 9.68035 14.7883C9.89687 14.903 10.0765 15.0766 10.1984 15.2891C10.2568 15.3735 10.3311 15.4456 10.4173 15.5013C10.5035 15.557 10.5999 15.5952 10.7008 15.6136C10.8017 15.6321 10.9053 15.6305 11.0057 15.6089C11.106 15.5873 11.2011 15.5462 11.2855 15.4879C11.37 15.4296 11.4421 15.3552 11.4978 15.269C11.5535 15.1828 11.5916 15.0865 11.6101 14.9855C11.6286 14.8846 11.627 14.781 11.6054 14.6806C11.5838 14.5803 11.5427 14.4852 11.4844 14.4008C11.2844 14.0785 11.0212 13.8 10.7108 13.5821C10.4004 13.3641 10.0491 13.2112 9.67805 13.1325C9.30701 13.0539 8.92389 13.051 8.55173 13.1243C8.17957 13.1975 7.82607 13.3452 7.51249 13.5586C7.8326 11.6804 8.77933 9.9659 10.1984 8.69453C10.1312 10.6359 10.8234 12.6703 12.9812 13.2547C13.0484 13.273 13.1178 13.2819 13.1875 13.2812C13.3767 13.281 13.5594 13.2121 13.7017 13.0874C13.8439 12.9626 13.936 12.7904 13.961 12.6029C13.9859 12.4153 13.9419 12.2251 13.8371 12.0675C13.7324 11.9099 13.574 11.7957 13.3914 11.7461C11.5906 11.2578 11.6867 9.06016 11.8117 8.13672C11.8331 7.95861 11.7913 7.77865 11.6937 7.62813C11.8992 7.51094 12.1164 7.4 12.3398 7.29219C12.3866 7.42694 12.4698 7.54613 12.5801 7.63657C12.6904 7.72702 12.8235 7.7852 12.9648 7.80469C13.5523 7.8643 14.121 8.0452 14.635 8.33594C15.149 8.62668 15.597 9.02093 15.9508 9.49375C16.3276 10.0598 16.4882 10.7425 16.4031 11.4172C15.5147 11.6032 14.7169 12.0883 14.143 12.7914C14.0788 12.8715 14.0311 12.9635 14.0025 13.0621C13.974 13.1606 13.9651 13.2639 13.9764 13.3659C13.9877 13.4679 14.019 13.5666 14.0685 13.6565C14.118 13.7464 14.1847 13.8257 14.2648 13.8898C14.345 13.954 14.4369 14.0017 14.5355 14.0303C14.6341 14.0588 14.7373 14.0677 14.8393 14.0564C14.9413 14.0451 15.0401 14.0138 15.13 13.9643C15.2199 13.9148 15.2991 13.8481 15.3633 13.768C15.6212 13.4559 15.9524 13.2125 16.3273 13.0594C16.7021 12.9063 17.109 12.8483 17.5117 12.8906C17.7617 12.9001 18.0052 12.9726 18.2196 13.1014C18.434 13.2302 18.6125 13.4111 18.7383 13.6273C18.7842 13.7191 18.8477 13.8009 18.9253 13.8682C19.0028 13.9354 19.0928 13.9867 19.1902 14.0191C19.2875 14.0515 19.3903 14.0645 19.4927 14.0572C19.595 14.0499 19.6949 14.0225 19.7867 13.9766C19.8785 13.9307 19.9603 13.8671 20.0275 13.7896C20.0947 13.712 20.146 13.622 20.1785 13.5247C20.2109 13.4273 20.2238 13.3245 20.2165 13.2222C20.2092 13.1198 20.1818 13.0199 20.1359 12.9281C19.9204 12.5233 19.6131 12.1745 19.2387 11.9096C18.8643 11.6447 18.4332 11.471 17.9797 11.4023C18.0579 10.4188 17.7989 9.43784 17.2453 8.62109C16.5455 7.62353 15.5325 6.88828 14.3672 6.53203C14.7509 6.42122 15.1393 6.32713 15.5312 6.25C16.641 6.03609 17.7682 5.92546 18.8984 5.91953C18.8895 6.05352 18.9157 6.18752 18.9744 6.30825C19.0332 6.42899 19.1226 6.53225 19.2336 6.60781C19.765 6.92504 20.165 7.42233 20.3609 8.00935C20.5569 8.59638 20.5358 9.23421 20.3016 9.80703C20.2088 9.99237 20.1935 10.207 20.259 10.4036C20.3245 10.6002 20.4654 10.7627 20.6508 10.8555C20.8361 10.9482 21.0507 10.9635 21.2473 10.898C21.4439 10.8325 21.6065 10.6916 21.6992 10.5063C22.0424 9.76436 22.15 8.93509 22.0074 8.13019C21.8647 7.3253 21.4788 6.58347 20.9016 6.00469C21.9878 6.10579 23.061 6.31676 24.1047 6.63437C24.0423 6.80824 24.0446 6.99872 24.1109 7.17109C24.9109 9.16953 24.4742 10.9109 22.939 11.8305C22.7614 11.9371 22.6333 12.1099 22.5831 12.3109C22.5328 12.5119 22.5645 12.7247 22.6711 12.9023C22.7777 13.08 22.9505 13.2081 23.1515 13.2583C23.3525 13.3086 23.5653 13.2769 23.743 13.1703C25.7664 11.9563 26.5039 9.74141 25.7828 7.28438C26.8392 7.77212 27.8026 8.44018 28.6297 9.25859C28.5225 9.34611 28.4409 9.46079 28.3932 9.59066C28.3455 9.72053 28.3335 9.86082 28.3586 9.99687C28.6031 11.2469 28.5055 12.1844 28.0781 12.7055C27.8694 12.9149 27.6167 13.0752 27.3383 13.1748C27.06 13.2744 26.7629 13.3108 26.4687 13.2812C26.2615 13.2812 26.0628 13.3636 25.9163 13.5101C25.7698 13.6566 25.6875 13.8553 25.6875 14.0625C25.6875 14.2697 25.7698 14.4684 25.9163 14.6149C26.0628 14.7614 26.2615 14.8438 26.4687 14.8438C26.9946 14.8806 27.5219 14.7965 28.0102 14.598C28.4986 14.3995 28.9349 14.0918 29.2859 13.6984C29.8414 12.9603 30.1122 12.0466 30.0484 11.125C30.5686 12.0404 30.9424 13.0316 31.1562 14.0625C31.6984 16.6453 31.9672 19.2234 28.3391 20.4508Z" fill="#FF652E"/>
</svg>
