<svg width="50" height="50" viewBox="0 0 50 50" fill="none" xmlns="http://www.w3.org/2000/svg">
<path d="M46.0938 -0.00390625H3.90625C2.8712 -0.000814987 1.87942 0.411728 1.14753 1.14362C0.415634 1.87552 0.00309126 2.86729 0 3.90234L0 46.0898C0.00309126 47.1249 0.415634 48.1167 1.14753 48.8486C1.87942 49.5805 2.8712 49.993 3.90625 49.9961H46.0938C47.1288 49.993 48.1206 49.5805 48.8525 48.8486C49.5844 48.1167 49.9969 47.1249 50 46.0898V3.90234C49.9969 2.86729 49.5844 1.87552 48.8525 1.14362C48.1206 0.411728 47.1288 -0.000814987 46.0938 -0.00390625ZM18.1008 44.4539C16.667 44.69 15.1981 44.3479 14.0163 43.5025C12.8344 42.6572 12.036 41.3777 11.7961 39.9445L10.2336 30.6406C10.1028 29.9284 10.1147 29.1973 10.2686 28.4898C10.4226 27.7822 10.7155 27.1123 11.1305 26.5188C11.5454 25.9254 12.0741 25.4202 12.6858 25.0327C13.2975 24.6452 13.9801 24.3831 14.6939 24.2614C15.4077 24.1398 16.1386 24.1612 16.8441 24.3243C17.5496 24.4874 18.2157 24.789 18.8038 25.2116C19.3918 25.6342 19.89 26.1693 20.2696 26.786C20.6492 27.4026 20.9025 28.0886 21.0148 28.8039L22.5773 38.1078C22.8182 39.5421 22.4831 41.0135 21.6447 42.2019C20.8064 43.3903 19.5328 44.1997 18.1008 44.4539ZM39.7594 30.6914L38.125 39.9875C38.0038 40.6937 37.7447 41.3692 37.3623 41.9753C36.98 42.5813 36.482 43.1061 35.8969 43.5197C35.3116 43.9332 34.6507 44.2274 33.9518 44.3854C33.2528 44.5434 32.5296 44.5622 31.8234 44.4406C30.3981 44.167 29.1379 43.3428 28.3158 42.1467C27.4937 40.9506 27.1759 39.4788 27.4312 38.05L29.068 28.7531C29.1892 28.0469 29.4483 27.3714 29.8306 26.7654C30.2129 26.1593 30.7109 25.6345 31.2961 25.221C31.8813 24.8074 32.5423 24.5132 33.2412 24.3552C33.9401 24.1972 34.6633 24.1784 35.3695 24.3C36.7946 24.5742 38.0544 25.3986 38.876 26.5949C39.6976 27.7911 40.015 29.2629 39.7594 30.6914ZM32.8125 20.3086H25.818L28.8727 10.382C28.9336 10.1839 28.9133 9.96978 28.8163 9.78664C28.7193 9.6035 28.5536 9.46639 28.3555 9.40547C28.1574 9.34455 27.9432 9.36482 27.7601 9.46181C27.5769 9.5588 27.4398 9.72457 27.3789 9.92266L24.2539 20.0789C24.2347 20.1539 24.2271 20.2313 24.2313 20.3086H17.1875L10.1562 8.58984C14.5454 6.49427 19.3552 5.4289 24.2188 5.475V8.58984C24.2188 8.79704 24.3011 8.99576 24.4476 9.14227C24.5941 9.28878 24.7928 9.37109 25 9.37109C25.2072 9.37109 25.4059 9.28878 25.5524 9.14227C25.6989 8.99576 25.7812 8.79704 25.7812 8.58984V5.48594C30.8273 5.58672 35.6414 6.38125 39.8438 8.59062L32.8125 20.3086Z" fill="#FF652E"/>
</svg>
