<svg width="20" height="20" viewBox="0 0 20 20" fill="none" xmlns="http://www.w3.org/2000/svg">
<path d="M15.625 15.9368C12.5 15.3431 12.5 14.3743 12.5 13.7493V13.3743C13.2932 12.6317 13.8572 11.6774 14.125 10.6243H14.1563C15.0938 10.6243 15.3438 8.65559 15.3438 8.34309C15.3438 8.03059 15.375 6.87434 14.4062 6.87434C16.4375 1.24934 10.9688 -1.00066 6.84375 1.87434C5.15625 1.87434 5 4.37434 5.625 6.87434C4.65625 6.87434 4.6875 8.06184 4.6875 8.34309C4.6875 8.62434 4.90625 10.6243 5.875 10.6243C6.14285 11.6774 6.70676 12.6317 7.5 13.3743V13.7493C7.5 14.3743 7.5 15.3743 4.375 15.9368C3.50037 16.0915 2.69048 16.4997 2.04599 17.1109C1.40149 17.7221 0.950826 18.5092 0.75 19.3743H19.25C19.0418 18.5127 18.5888 17.7297 17.9456 17.1197C17.3024 16.5098 16.4965 16.099 15.625 15.9368Z" fill="#FF652E"/>
</svg>
