<svg width="16" height="16" viewBox="0 0 16 16" fill="none" xmlns="http://www.w3.org/2000/svg">
<path d="M12.4996 12.7491C9.99961 12.2741 9.99961 11.4991 9.99961 10.9991V10.6991C10.6342 10.105 11.0853 9.34154 11.2996 8.49908H11.3246C12.0746 8.49908 12.2746 6.92408 12.2746 6.67408C12.2746 6.42408 12.2996 5.49908 11.5246 5.49908C13.1496 0.999082 8.77461 -0.800918 5.47461 1.49908C4.12461 1.49908 3.99961 3.49908 4.49961 5.49908C3.72461 5.49908 3.74961 6.44908 3.74961 6.67408C3.74961 6.89908 3.92461 8.49908 4.69961 8.49908C4.91389 9.34154 5.36502 10.105 5.99961 10.6991V10.9991C5.99961 11.4991 5.99961 12.2991 3.49961 12.7491C2.79991 12.8728 2.15199 13.1994 1.6364 13.6883C1.1208 14.1773 0.76027 14.8069 0.599609 15.4991H15.3996C15.2331 14.8098 14.8707 14.1834 14.3561 13.6954C13.8415 13.2075 13.1968 12.8788 12.4996 12.7491Z" fill="white"/>
</svg>
