<svg width="20" height="20" viewBox="0 0 20 20" fill="none" xmlns="http://www.w3.org/2000/svg">
<path d="M9.99999 0C8.02218 0 6.08878 0.58649 4.44429 1.6853C2.7998 2.78412 1.51807 4.3459 0.761194 6.17317C0.00431755 8.00043 -0.193716 10.0111 0.192136 11.9509C0.577989 13.8907 1.5304 15.6725 2.92892 17.0711C4.32745 18.4696 6.10928 19.422 8.04909 19.8079C9.9889 20.1937 11.9996 19.9957 13.8268 19.2388C15.6541 18.4819 17.2159 17.2002 18.3147 15.5557C19.4135 13.9112 20 11.9778 20 10C20 7.34784 18.9464 4.8043 17.0711 2.92893C15.1957 1.05357 12.6522 0 9.99999 0V0ZM14.2697 12.8916C14.2073 12.999 14.1047 13.0773 13.9846 13.1092C13.8644 13.1411 13.7366 13.124 13.6291 13.0616L9.37499 10.5938V2.96875C9.37499 2.84443 9.42438 2.7252 9.51228 2.63729C9.60019 2.54939 9.71942 2.5 9.84374 2.5C9.96806 2.5 10.0873 2.54939 10.1752 2.63729C10.2631 2.7252 10.3125 2.84443 10.3125 2.96875V10.0528L14.0997 12.25C14.153 12.2809 14.1997 12.322 14.2372 12.371C14.2746 12.42 14.302 12.4759 14.3178 12.5355C14.3336 12.5951 14.3374 12.6572 14.3292 12.7183C14.3209 12.7794 14.3007 12.8383 14.2697 12.8916Z" fill="#FF652E"/>
</svg>
