<svg width="18" height="18" viewBox="0 0 18 18" fill="none" xmlns="http://www.w3.org/2000/svg">
<g clip-path="url(#clip0_0_61)">
<path d="M14.0623 14.343C11.2498 13.8086 11.2498 12.9367 11.2498 12.3742V12.0367C11.9637 11.3684 12.4712 10.5095 12.7123 9.56171H12.7404C13.5842 9.56171 13.8092 7.78984 13.8092 7.50859C13.8092 7.22734 13.8373 6.18671 12.9654 6.18671C14.7936 1.12421 9.87168 -0.900788 6.15918 1.68671C4.64043 1.68671 4.4998 3.93671 5.0623 6.18671C4.19043 6.18671 4.21855 7.25546 4.21855 7.50859C4.21855 7.76171 4.41543 9.56171 5.2873 9.56171C5.52837 10.5095 6.03589 11.3684 6.7498 12.0367V12.3742C6.7498 12.9367 6.7498 13.8367 3.9373 14.343C3.15014 14.4821 2.42124 14.8496 1.84119 15.3996C1.26115 15.9497 0.855548 16.658 0.674805 17.4367H17.3248C17.1375 16.6612 16.7298 15.9565 16.1509 15.4076C15.572 14.8586 14.8466 14.4889 14.0623 14.343Z" fill="#FF652E"/>
</g>
<defs>
<clipPath id="clip0_0_61">
<rect width="18" height="18" fill="white"/>
</clipPath>
</defs>
</svg>
