<svg width="18" height="18" viewBox="0 0 18 18" fill="none" xmlns="http://www.w3.org/2000/svg">
<path d="M9 0.56253C7.65734 0.56253 6.36967 1.0959 5.42027 2.0453C4.47087 2.9947 3.9375 4.28237 3.9375 5.62503C3.94363 5.83223 3.96242 6.03887 3.99375 6.24378C4.41562 10.35 9 12.6282 9 17.4375C9 12.6282 13.5844 10.35 14.0062 6.2719C14.1027 5.5588 14.0452 4.8333 13.8376 4.1443C13.63 3.4553 13.277 2.81882 12.8026 2.27776C12.3282 1.7367 11.7433 1.30363 11.0873 1.00775C10.4314 0.71187 9.7196 0.560052 9 0.56253ZM9 7.31253C8.66624 7.31253 8.33998 7.21356 8.06248 7.02813C7.78497 6.84271 7.56868 6.57916 7.44095 6.27081C7.31323 5.96246 7.27981 5.62316 7.34492 5.29581C7.41004 4.96847 7.57076 4.66779 7.80676 4.43179C8.04276 4.19579 8.34344 4.03507 8.67078 3.96995C8.99813 3.90484 9.33743 3.93826 9.64578 4.06598C9.95413 4.19371 10.2177 4.41 10.4031 4.6875C10.5885 4.96501 10.6875 5.29127 10.6875 5.62503C10.6875 6.07258 10.5097 6.50181 10.1932 6.81827C9.87678 7.13474 9.44755 7.31253 9 7.31253Z" fill="#FF652E"/>
</svg>
