<svg width="18" height="18" viewBox="0 0 18 18" fill="none" xmlns="http://www.w3.org/2000/svg">
<g clip-path="url(#clip0_0_63)">
<path d="M15.75 10.6875C15.511 10.6845 15.2741 10.7333 15.0557 10.8304C14.8373 10.9275 14.6424 11.0706 14.4844 11.25C14.0906 11.6437 12.9375 11.8125 12.9375 10.6875V5.06248H8.4375C7.3125 5.06248 7.48125 3.90935 7.875 3.5156C8.12973 3.28776 8.30928 2.98794 8.38989 2.65582C8.4705 2.32371 8.44836 1.97494 8.32642 1.65568C8.20447 1.33641 7.98846 1.0617 7.70696 0.867891C7.42547 0.674082 7.09176 0.570312 6.75 0.570312C6.40824 0.570313 6.07453 0.674082 5.79304 0.867891C5.51154 1.0617 5.29553 1.33641 5.17358 1.65568C5.05164 1.97494 5.0295 2.32371 5.11011 2.65582C5.19072 2.98794 5.37027 3.28776 5.625 3.5156C6.01875 3.90935 6.1875 5.06248 5.0625 5.06248H0.5625V7.31248C0.5625 8.43748 1.71563 8.26873 2.10938 7.87498C2.26737 7.69559 2.46226 7.55246 2.6807 7.45537C2.89914 7.35829 3.13597 7.30954 3.375 7.31248C3.65615 7.31378 3.93252 7.38532 4.17899 7.52058C4.42547 7.65584 4.63425 7.85054 4.78636 8.08699C4.93846 8.32345 5.02908 8.59416 5.04998 8.87453C5.07088 9.15491 5.02139 9.43606 4.90601 9.69245C4.79064 9.94884 4.61303 10.1723 4.38933 10.3426C4.16563 10.5129 3.90292 10.6247 3.62507 10.6676C3.34722 10.7106 3.06304 10.6835 2.79834 10.5887C2.53364 10.4939 2.29681 10.3345 2.10938 10.125C1.71563 9.73123 0.5625 9.56248 0.5625 10.6875V17.4375H7.3125C8.4375 17.4375 8.26875 16.2844 7.875 15.8906C7.69561 15.7326 7.55248 15.5377 7.45539 15.3193C7.35831 15.1008 7.30957 14.864 7.3125 14.625C7.31381 14.3438 7.38534 14.0675 7.5206 13.821C7.65586 13.5745 7.85057 13.3657 8.08702 13.2136C8.32347 13.0615 8.59418 12.9709 8.87456 12.95C9.15493 12.9291 9.43608 12.9786 9.69247 13.094C9.94886 13.2093 10.1724 13.3869 10.3427 13.6106C10.513 13.8344 10.6247 14.0971 10.6677 14.3749C10.7106 14.6528 10.6835 14.9369 10.5887 15.2016C10.494 15.4663 10.3346 15.7032 10.125 15.8906C9.73125 16.2844 9.5625 17.4375 10.6875 17.4375H12.9375V14.0625C12.9375 12.9375 14.0906 13.1062 14.4844 13.5C14.6718 13.7095 14.9086 13.8689 15.1733 13.9637C15.438 14.0585 15.7222 14.0856 16.0001 14.0426C16.2779 13.9997 16.5406 13.8879 16.7643 13.7176C16.988 13.5473 17.1656 13.3238 17.281 13.0674C17.3964 12.8111 17.4459 12.5299 17.425 12.2495C17.4041 11.9692 17.3135 11.6984 17.1614 11.462C17.0092 11.2255 16.8005 11.0308 16.554 10.8956C16.3075 10.7603 16.0311 10.6888 15.75 10.6875Z" fill="#FF652E"/>
</g>
<defs>
<clipPath id="clip0_0_63">
<rect width="18" height="18" fill="white"/>
</clipPath>
</defs>
</svg>
